<svg preserveAspectRatio="none" width="100%" height="100%" overflow="visible" style="display: block;" viewBox="0 0 18.3338 18.3338" fill="none" xmlns="http://www.w3.org/2000/svg">
<path id="Vector" d="M7.44623 12.0835C7.37183 11.7951 7.22151 11.532 7.01091 11.3214C6.80031 11.1108 6.53712 10.9604 6.24873 10.886L1.13623 9.56771C1.04901 9.54295 0.972237 9.49042 0.917573 9.41808C0.862909 9.34574 0.833333 9.25754 0.833333 9.16687C0.833333 9.0762 0.862909 8.98801 0.917573 8.91567C0.972237 8.84333 1.04901 8.7908 1.13623 8.76604L6.24873 7.44687C6.53702 7.37255 6.80014 7.22235 7.01073 7.01191C7.22132 6.80146 7.3717 6.53845 7.44623 6.25021L8.76456 1.13771C8.78907 1.05014 8.84155 0.972992 8.914 0.918036C8.98644 0.86308 9.07488 0.833333 9.16581 0.833333C9.25674 0.833333 9.34518 0.86308 9.41763 0.918036C9.49008 0.972992 9.54256 1.05014 9.56706 1.13771L10.8846 6.25021C10.959 6.5386 11.1093 6.80179 11.3199 7.01239C11.5305 7.22299 11.7937 7.37331 12.0821 7.44771L17.1946 8.76521C17.2825 8.78946 17.36 8.84188 17.4153 8.91444C17.4705 8.98699 17.5004 9.07568 17.5004 9.16687C17.5004 9.25807 17.4705 9.34675 17.4153 9.41931C17.36 9.49187 17.2825 9.54429 17.1946 9.56854L12.0821 10.886C11.7937 10.9604 11.5305 11.1108 11.3199 11.3214C11.1093 11.532 10.959 11.7951 10.8846 12.0835L9.56623 17.196C9.54172 17.2836 9.48924 17.3608 9.4168 17.4157C9.34435 17.4707 9.25591 17.5004 9.16498 17.5004C9.07405 17.5004 8.98561 17.4707 8.91316 17.4157C8.84072 17.3608 8.78824 17.2836 8.76373 17.196L7.44623 12.0835Z" stroke="var(--stroke-0, white)" stroke-width="1.66667" stroke-linecap="round" stroke-linejoin="round"/>
</svg>
