<svg preserveAspectRatio="none" width="100%" height="100%" overflow="visible" style="display: block;" viewBox="0 0 18.0618 18.0622" fill="none" xmlns="http://www.w3.org/2000/svg">
<path id="Vector" d="M11.2796 4.28224C11.1269 4.43802 11.0413 4.64745 11.0413 4.86558C11.0413 5.0837 11.1269 5.29314 11.2796 5.44891L12.6129 6.78224C12.7687 6.93493 12.9781 7.02046 13.1962 7.02046C13.4143 7.02046 13.6238 6.93493 13.7796 6.78224L16.3679 4.19474C16.6346 3.92641 17.0871 4.01141 17.1871 4.37641C17.4388 5.29214 17.4246 6.26063 17.146 7.16857C16.8675 8.07651 16.3361 8.88633 15.614 9.50328C14.892 10.1202 14.0092 10.5188 13.0689 10.6523C12.1287 10.7858 11.1698 10.6488 10.3046 10.2572L3.71289 16.8489C3.38137 17.1803 2.93177 17.3665 2.46301 17.3664C1.99425 17.3663 1.54472 17.18 1.21331 16.8485C0.881896 16.517 0.695755 16.0674 0.695833 15.5986C0.695911 15.1299 0.882202 14.6803 1.21372 14.3489L7.80539 7.75724C7.41384 6.892 7.27681 5.93314 7.41033 4.99287C7.54386 4.05259 7.94241 3.16979 8.55936 2.44776C9.1763 1.72573 9.98612 1.19434 10.8941 0.915765C11.802 0.637194 12.7705 0.622965 13.6862 0.874743C14.0512 0.974743 14.1362 1.42641 13.8687 1.69474L11.2796 4.28224Z" stroke="var(--stroke-0, white)" stroke-width="1.39167" stroke-linecap="round" stroke-linejoin="round"/>
</svg>
