<svg preserveAspectRatio="none" width="100%" height="100%" overflow="visible" style="display: block;" viewBox="0 0 20 20" fill="none" xmlns="http://www.w3.org/2000/svg">
<g id="Icon">
<path id="Vector" d="M13.3333 16.6667V3.33333C13.3333 2.89131 13.1577 2.46738 12.8452 2.15482C12.5326 1.84226 12.1087 1.66667 11.6667 1.66667H8.33333C7.89131 1.66667 7.46738 1.84226 7.15482 2.15482C6.84226 2.46738 6.66667 2.89131 6.66667 3.33333V16.6667" stroke="var(--stroke-0, #0A0A0A)" stroke-width="1.39167" stroke-linecap="round" stroke-linejoin="round"/>
<path id="Vector_2" d="M16.6667 5H3.33333C2.41286 5 1.66667 5.74619 1.66667 6.66667V15C1.66667 15.9205 2.41286 16.6667 3.33333 16.6667H16.6667C17.5871 16.6667 18.3333 15.9205 18.3333 15V6.66667C18.3333 5.74619 17.5871 5 16.6667 5Z" stroke="var(--stroke-0, #0A0A0A)" stroke-width="1.39167" stroke-linecap="round" stroke-linejoin="round"/>
</g>
</svg>
