<svg preserveAspectRatio="none" width="100%" height="100%" overflow="visible" style="display: block;" viewBox="0 0 20 20" fill="none" xmlns="http://www.w3.org/2000/svg">
<g id="Icon">
<path id="Vector" d="M8.55662 17.5C8.70291 17.7533 8.9133 17.9637 9.16666 18.11C9.42001 18.2563 9.70741 18.3333 9.99995 18.3333C10.2925 18.3333 10.5799 18.2563 10.8333 18.11C11.0866 17.9637 11.297 17.7533 11.4433 17.5" stroke="var(--stroke-0, #4A5565)" stroke-width="1.66667" stroke-linecap="round" stroke-linejoin="round"/>
<path id="Vector_2" d="M2.7187 12.772C2.60984 12.8913 2.538 13.0397 2.51191 13.1991C2.48583 13.3585 2.50663 13.522 2.57179 13.6698C2.63695 13.8176 2.74365 13.9433 2.87891 14.0316C3.01418 14.1198 3.17218 14.1669 3.3337 14.167H16.667C16.8285 14.167 16.9866 14.1202 17.1219 14.0321C17.2573 13.944 17.3641 13.8184 17.4294 13.6708C17.4948 13.5231 17.5158 13.3596 17.4899 13.2001C17.464 13.0407 17.3924 12.8923 17.2837 12.7728C16.1754 11.6303 15.0004 10.4162 15.0004 6.66699C15.0004 5.34091 14.4736 4.06914 13.5359 3.13146C12.5982 2.19378 11.3265 1.66699 10.0004 1.66699C8.67429 1.66699 7.40252 2.19378 6.46483 3.13146C5.52715 4.06914 5.00037 5.34091 5.00037 6.66699C5.00037 10.4162 3.82453 11.6303 2.7187 12.772Z" stroke="var(--stroke-0, #4A5565)" stroke-width="1.66667" stroke-linecap="round" stroke-linejoin="round"/>
</g>
</svg>
