<svg preserveAspectRatio="none" width="100%" height="100%" overflow="visible" style="display: block;" viewBox="0 0 20 20" fill="none" xmlns="http://www.w3.org/2000/svg">
<g id="Frame">
<path id="Vector" d="M3.33333 3.33333L5 6.66667H7.5L5.83333 3.33333H7.5L9.16667 6.66667H11.6667L10 3.33333H11.6667L13.3333 6.66667H15.8333L14.1667 3.33333H16.6667C17.125 3.33333 17.5174 3.49653 17.8437 3.82292C18.1701 4.14931 18.3333 4.54167 18.3333 5V15C18.3333 15.4583 18.1701 15.8507 17.8437 16.1771C17.5174 16.5035 17.125 16.6667 16.6667 16.6667H3.33333C2.875 16.6667 2.48264 16.5035 2.15625 16.1771C1.82986 15.8507 1.66667 15.4583 1.66667 15V5C1.66667 4.54167 1.82986 4.14931 2.15625 3.82292C2.48264 3.49653 2.875 3.33333 3.33333 3.33333ZM3.33333 8.33333V15H16.6667V8.33333H3.33333Z" fill="var(--fill-0, #F3F4F6)"/>
</g>
</svg>
