<svg preserveAspectRatio="none" width="100%" height="100%" overflow="visible" style="display: block;" viewBox="0 0 20 20" fill="none" xmlns="http://www.w3.org/2000/svg">
<g id="request_quote">
<mask id="mask0_5655_7713" style="mask-type:alpha" maskUnits="userSpaceOnUse" x="0" y="0" width="20" height="20">
<rect id="Bounding box" width="20" height="20" fill="var(--fill-0, #D9D9D9)"/>
</mask>
<g mask="url(#mask0_5655_7713)">
<path id="request_quote_2" d="M9.51917 15.5208H10.7692V14.6875H11.8108C11.9882 14.6875 12.1367 14.6276 12.2565 14.5079C12.376 14.3883 12.4358 14.2399 12.4358 14.0625V11.5625C12.4358 11.3851 12.376 11.2367 12.2565 11.1171C12.1367 10.9974 11.9882 10.9375 11.8108 10.9375H9.1025V9.6875H12.4358V8.4375H10.7692V7.60417H9.51917V8.4375H8.4775C8.30014 8.4375 8.15167 8.49736 8.03208 8.61708C7.91236 8.73667 7.8525 8.88514 7.8525 9.0625V11.5625C7.8525 11.7399 7.91236 11.8883 8.03208 12.0079C8.15167 12.1276 8.30014 12.1875 8.4775 12.1875H11.1858V13.4375H7.8525V14.6875H9.51917V15.5208ZM5.25646 17.9167C4.83549 17.9167 4.47917 17.7708 4.1875 17.4792C3.89583 17.1875 3.75 16.8312 3.75 16.4102V3.58979C3.75 3.16882 3.89583 2.8125 4.1875 2.52083C4.47917 2.22917 4.83549 2.08333 5.25646 2.08333H11.875L16.25 6.45833V16.4102C16.25 16.8312 16.1042 17.1875 15.8125 17.4792C15.5208 17.7708 15.1645 17.9167 14.7435 17.9167H5.25646ZM11.25 6.57042V3.33333H5.25646C5.19229 3.33333 5.13354 3.36007 5.08021 3.41354C5.02674 3.46687 5 3.52562 5 3.58979V16.4102C5 16.4744 5.02674 16.5331 5.08021 16.5865C5.13354 16.6399 5.19229 16.6667 5.25646 16.6667H14.7435C14.8077 16.6667 14.8665 16.6399 14.9198 16.5865C14.9733 16.5331 15 16.4744 15 16.4102V6.57042H11.25Z" fill="var(--fill-0, #1C1B1F)"/>
</g>
</g>
</svg>
