<svg preserveAspectRatio="none" width="100%" height="100%" overflow="visible" style="display: block;" viewBox="0 0 20 20" fill="none" xmlns="http://www.w3.org/2000/svg">
<g id="Icon">
<path id="Vector" d="M8.55662 17.5C8.70291 17.7533 8.9133 17.9637 9.16666 18.11C9.42001 18.2563 9.70741 18.3333 9.99995 18.3333C10.2925 18.3333 10.5799 18.2563 10.8333 18.11C11.0866 17.9637 11.297 17.7533 11.4433 17.5" stroke="var(--stroke-0, #4A5565)" stroke-width="1.66667" stroke-linecap="round" stroke-linejoin="round"/>
<path id="Vector_2" d="M2.7187 12.7716C2.60984 12.8909 2.538 13.0393 2.51191 13.1987C2.48583 13.3581 2.50663 13.5217 2.57179 13.6695C2.63695 13.8173 2.74365 13.9429 2.87891 14.0312C3.01418 14.1195 3.17218 14.1665 3.3337 14.1666H16.667C16.8285 14.1667 16.9866 14.1198 17.1219 14.0317C17.2573 13.9436 17.3641 13.8181 17.4294 13.6704C17.4948 13.5227 17.5158 13.3592 17.4899 13.1998C17.464 13.0404 17.3924 12.8919 17.2837 12.7725C16.1754 11.63 15.0004 10.4158 15.0004 6.66663C15.0004 5.34054 14.4736 4.06877 13.5359 3.13109C12.5982 2.19341 11.3265 1.66663 10.0004 1.66663C8.67429 1.66663 7.40252 2.19341 6.46483 3.13109C5.52715 4.06877 5.00037 5.34054 5.00037 6.66663C5.00037 10.4158 3.82453 11.63 2.7187 12.7716Z" stroke="var(--stroke-0, #4A5565)" stroke-width="1.66667" stroke-linecap="round" stroke-linejoin="round"/>
</g>
</svg>
