<svg preserveAspectRatio="none" width="100%" height="100%" overflow="visible" style="display: block;" viewBox="0 0 20 20" fill="none" xmlns="http://www.w3.org/2000/svg">
<g id="local_mall">
<mask id="mask0_5655_7707" style="mask-type:alpha" maskUnits="userSpaceOnUse" x="0" y="0" width="20" height="20">
<rect id="Bounding box" width="20" height="20" fill="var(--fill-0, #D9D9D9)"/>
</mask>
<g mask="url(#mask0_5655_7707)">
<path id="local_mall_2" d="M4.16667 18.3333C3.70833 18.3333 3.31597 18.1701 2.98958 17.8437C2.66319 17.5174 2.5 17.125 2.5 16.6667V6.66667C2.5 6.20833 2.66319 5.81597 2.98958 5.48958C3.31597 5.16319 3.70833 5 4.16667 5H5.83333C5.83333 3.84722 6.23958 2.86458 7.05208 2.05208C7.86458 1.23958 8.84722 0.833333 10 0.833333C11.1528 0.833333 12.1354 1.23958 12.9479 2.05208C13.7604 2.86458 14.1667 3.84722 14.1667 5H15.8333C16.2917 5 16.684 5.16319 17.0104 5.48958C17.3368 5.81597 17.5 6.20833 17.5 6.66667V16.6667C17.5 17.125 17.3368 17.5174 17.0104 17.8437C16.684 18.1701 16.2917 18.3333 15.8333 18.3333H4.16667ZM4.16667 16.6667H15.8333V6.66667H4.16667V16.6667ZM12.9479 10.4479C13.7604 9.63542 14.1667 8.65278 14.1667 7.5H12.5C12.5 8.19444 12.2569 8.78472 11.7708 9.27083C11.2847 9.75694 10.6944 10 10 10C9.30556 10 8.71528 9.75694 8.22917 9.27083C7.74306 8.78472 7.5 8.19444 7.5 7.5H5.83333C5.83333 8.65278 6.23958 9.63542 7.05208 10.4479C7.86458 11.2604 8.84722 11.6667 10 11.6667C11.1528 11.6667 12.1354 11.2604 12.9479 10.4479ZM7.5 5H12.5C12.5 4.30556 12.2569 3.71528 11.7708 3.22917C11.2847 2.74306 10.6944 2.5 10 2.5C9.30556 2.5 8.71528 2.74306 8.22917 3.22917C7.74306 3.71528 7.5 4.30556 7.5 5Z" fill="var(--fill-0, #1C1B1F)"/>
</g>
</g>
</svg>
