<svg preserveAspectRatio="none" width="100%" height="100%" overflow="visible" style="display: block;" viewBox="0 0 17 16.4125" fill="none" xmlns="http://www.w3.org/2000/svg">
<path id="villa" d="M0 14.8932V5.49895C0 5.12295 0.10525 4.78078 0.31575 4.47245C0.52625 4.16395 0.804333 3.94203 1.15 3.8067L10.8903 0.0722C11.1916 -0.0483 11.4711 -0.0179663 11.7288 0.1632C11.9864 0.344367 12.1152 0.593449 12.1152 0.910449V8.41245H13.4615C13.4615 7.92595 13.6347 7.50945 13.981 7.16295C14.3273 6.81645 14.7437 6.6432 15.23 6.6432C15.7163 6.6432 16.1329 6.81645 16.4797 7.16295C16.8266 7.50945 17 7.92595 17 8.41245V14.8932C17 15.315 16.8523 15.6737 16.5568 15.9692C16.2613 16.2647 15.9026 16.4125 15.4808 16.4125H1.51925C1.09742 16.4125 0.73875 16.2647 0.44325 15.9692C0.14775 15.6737 0 15.315 0 14.8932ZM1.5 14.9125H6V10.2202C6 9.72303 6.177 9.29745 6.531 8.94345C6.885 8.58945 7.31058 8.41245 7.80775 8.41245H10.6155V1.76445L1.69225 5.21045C1.63458 5.23612 1.58817 5.27462 1.553 5.32595C1.51767 5.37728 1.5 5.43495 1.5 5.49895V14.9125ZM7.5 14.9125H10.6155V13.1432C10.6155 12.8984 10.7017 12.6897 10.874 12.5172C11.0465 12.3449 11.2552 12.2587 11.5 12.2587C11.7448 12.2587 11.9535 12.3449 12.126 12.5172C12.2983 12.6897 12.3845 12.8984 12.3845 13.1432V14.9125H15.5V9.91245H7.80775C7.71792 9.91245 7.64417 9.94128 7.5865 9.99895C7.52883 10.0566 7.5 10.1304 7.5 10.2202V14.9125Z" fill="var(--fill-0, #1C1B1F)"/>
</svg>
